<?xml version="1.0" encoding="UTF-8" standalone="no"?><svg xmlns="http://www.w3.org/2000/svg" xmlns:xlink="http://www.w3.org/1999/xlink" contentScriptType="application/ecmascript" contentStyleType="text/css" height="1082px" preserveAspectRatio="none" style="width:1828px;height:1082px;" version="1.1" viewBox="0 0 1828 1082" width="1828px" zoomAndPan="magnify"><defs><filter height="300%" id="f1svkuz1v70lay" width="300%" x="-1" y="-1"><feGaussianBlur result="blurOut" stdDeviation="2.0"/><feColorMatrix in="blurOut" result="blurOut2" type="matrix" values="0 0 0 0 0 0 0 0 0 0 0 0 0 0 0 0 0 0 .4 0"/><feOffset dx="4.0" dy="4.0" in="blurOut2" result="blurOut3"/><feBlend in="SourceGraphic" in2="blurOut3" mode="normal"/></filter></defs><g><!--MD5=[3945af08d0ee91eedaaa803ffeb62ba1]
cluster MVVMLibrary.Attributes--><polygon fill="#FFFFFF" filter="url(#f1svkuz1v70lay)" points="16,218.5,219,218.5,226,240.7969,316,240.7969,316,462.5,16,462.5,16,218.5" style="stroke:#000000;stroke-width:1.5;"/><line style="stroke:#000000;stroke-width:1.5;" x1="16" x2="226" y1="240.7969" y2="240.7969"/><text fill="#000000" font-family="sans-serif" font-size="14" font-weight="bold" lengthAdjust="spacing" textLength="197" x="20" y="233.4951">MVVMLibrary.Attributes</text><!--MD5=[8c44c800f3ba61fb2ed1a48dad095105]
cluster ___Common___--><polygon fill="#FFFFFF" filter="url(#f1svkuz1v70lay)" points="344,6,434,6,441,28.2969,858,28.2969,858,105,344,105,344,6" style="stroke:#000000;stroke-width:1.5;"/><line style="stroke:#000000;stroke-width:1.5;" x1="344" x2="441" y1="28.2969" y2="28.2969"/><text fill="#000000" font-family="sans-serif" font-size="14" font-weight="bold" lengthAdjust="spacing" text-decoration="underline" textLength="77" x="348" y="20.9951">_Common</text><text fill="#000000" font-family="sans-serif" font-size="14" font-weight="bold" lengthAdjust="spacing" textLength="7" x="425" y="20.9951">_</text><!--MD5=[841ca37106306cc7f8b1b59acdfed0a3]
cluster MVVMLibrary.Models--><polygon fill="#FFFFFF" filter="url(#f1svkuz1v70lay)" points="340,129,515,129,522,151.2969,970,151.2969,970,1075,340,1075,340,129" style="stroke:#000000;stroke-width:1.5;"/><line style="stroke:#000000;stroke-width:1.5;" x1="340" x2="522" y1="151.2969" y2="151.2969"/><text fill="#000000" font-family="sans-serif" font-size="14" font-weight="bold" lengthAdjust="spacing" textLength="169" x="344" y="143.9951">MVVMLibrary.Models</text><!--MD5=[c38e40a4f871b95e35c632287af10357]
cluster MVVMLibrary.ViewModels--><polygon fill="#FFFFFF" filter="url(#f1svkuz1v70lay)" points="994,176,1207,176,1214,198.2969,1811,198.2969,1811,933,994,933,994,176" style="stroke:#000000;stroke-width:1.5;"/><line style="stroke:#000000;stroke-width:1.5;" x1="994" x2="1214" y1="198.2969" y2="198.2969"/><text fill="#000000" font-family="sans-serif" font-size="14" font-weight="bold" lengthAdjust="spacing" textLength="207" x="998" y="190.9951">MVVMLibrary.ViewModels</text><!--MD5=[ab77c7df1757787c182c360f41486cd1]
class MVVMLibrary.Attributes.NotifyAttribute--><rect codeLine="4" fill="#FEFECE" filter="url(#f1svkuz1v70lay)" height="192.8516" id="MVVMLibrary.Attributes.NotifyAttribute" style="stroke:#A80036;stroke-width:1.5;" width="268" x="32" y="253.5"/><ellipse cx="113.75" cy="269.5" fill="#ADD1B2" rx="11" ry="11" style="stroke:#A80036;stroke-width:1.0;"/><path d="M116.0938,265.1719 C115.1563,264.7344 114.5625,264.5938 113.6875,264.5938 C111.0625,264.5938 109.0625,266.6719 109.0625,269.3906 L109.0625,270.5156 C109.0625,273.0938 111.1719,274.9844 114.0625,274.9844 C115.2813,274.9844 116.4375,274.6875 117.1875,274.1406 C117.7656,273.7344 118.0938,273.2813 118.0938,272.8906 C118.0938,272.4375 117.7031,272.0469 117.2344,272.0469 C117.0156,272.0469 116.8125,272.125 116.625,272.3125 C116.1719,272.7969 116.1719,272.7969 115.9844,272.8906 C115.5625,273.1563 114.875,273.2813 114.1094,273.2813 C112.0625,273.2813 110.7656,272.1875 110.7656,270.4844 L110.7656,269.3906 C110.7656,267.6094 112.0156,266.2969 113.75,266.2969 C114.3281,266.2969 114.9375,266.4531 115.4063,266.7031 C115.8906,266.9844 116.0625,267.2031 116.1563,267.6094 C116.2188,268.0156 116.25,268.1406 116.3906,268.2656 C116.5313,268.4063 116.7656,268.5156 116.9844,268.5156 C117.25,268.5156 117.5156,268.375 117.6875,268.1563 C117.7969,268 117.8281,267.8125 117.8281,267.3906 L117.8281,265.9688 C117.8281,265.5313 117.8125,265.4063 117.7188,265.25 C117.5625,264.9844 117.2813,264.8438 116.9844,264.8438 C116.6875,264.8438 116.4844,264.9375 116.2656,265.25 L116.0938,265.1719 Z " fill="#000000"/><ellipse cx="139.25" cy="269" fill="#84BE84" rx="3" ry="3" style="stroke:#038048;stroke-width:1.0;"/><text fill="#000000" font-family="sans-serif" font-size="12" lengthAdjust="spacing" textLength="85" x="145.25" y="273.6543">NotifyAttribute</text><line style="stroke:#A80036;stroke-width:1.5;" x1="33" x2="299" y1="285.5" y2="285.5"/><ellipse cx="43" cy="313.3047" fill="#84BE84" rx="3" ry="3" style="stroke:#038048;stroke-width:1.0;"/><text fill="#000000" font-family="sans-serif" font-size="11" lengthAdjust="spacing" textLength="242" x="52" y="316.5151">public NotifyAttribute(string[] notifyNames)</text><text fill="#000000" font-family="sans-serif" font-size="11" lengthAdjust="spacing" textLength="0" x="56" y="329.3198"/><ellipse cx="43" cy="338.9141" fill="#84BE84" rx="3" ry="3" style="stroke:#038048;stroke-width:1.0;"/><text fill="#000000" font-family="sans-serif" font-size="11" lengthAdjust="spacing" textLength="228" x="52" y="342.1245">public NotifyAttribute(string notifyName)</text><text fill="#000000" font-family="sans-serif" font-size="11" lengthAdjust="spacing" textLength="0" x="56" y="354.9292"/><line style="stroke:#A80036;stroke-width:1.0;stroke-dasharray:1.0,2.0;" x1="33" x2="142" y1="299.9023" y2="299.9023"/><text fill="#000000" font-family="sans-serif" font-size="11" lengthAdjust="spacing" textLength="48" x="142" y="303.2104">Methods</text><line style="stroke:#A80036;stroke-width:1.0;stroke-dasharray:1.0,2.0;" x1="190" x2="299" y1="299.9023" y2="299.9023"/><ellipse cx="43" cy="381.3281" fill="none" rx="3" ry="3" style="stroke:#038048;stroke-width:1.0;"/><text fill="#000000" font-family="sans-serif" font-size="11" lengthAdjust="spacing" textLength="80" x="52" y="384.5386">NotifyNames :</text><text fill="#000000" font-family="sans-serif" font-size="11" lengthAdjust="spacing" textLength="0" x="56" y="397.3433"/><line style="stroke:#A80036;stroke-width:1.0;stroke-dasharray:1.0,2.0;" x1="33" x2="137.5" y1="367.9258" y2="367.9258"/><text fill="#000000" font-family="sans-serif" font-size="11" lengthAdjust="spacing" textLength="57" x="137.5" y="371.2339">Properties</text><line style="stroke:#A80036;stroke-width:1.0;stroke-dasharray:1.0,2.0;" x1="194.5" x2="299" y1="367.9258" y2="367.9258"/><rect fill="none" height="6" style="stroke:#C82930;stroke-width:1.0;" width="6" x="40" y="420.7422"/><text fill="#000000" font-family="sans-serif" font-size="11" lengthAdjust="spacing" textLength="79" x="52" y="426.9526">notifyNames :</text><text fill="#000000" font-family="sans-serif" font-size="11" lengthAdjust="spacing" textLength="0" x="56" y="439.7573"/><line style="stroke:#A80036;stroke-width:1.0;stroke-dasharray:1.0,2.0;" x1="33" x2="149.5" y1="410.3398" y2="410.3398"/><text fill="#000000" font-family="sans-serif" font-size="11" lengthAdjust="spacing" textLength="33" x="149.5" y="413.6479">Fields</text><line style="stroke:#A80036;stroke-width:1.0;stroke-dasharray:1.0,2.0;" x1="182.5" x2="299" y1="410.3398" y2="410.3398"/><!--MD5=[eacc5ed5e7cac2e4d36b45ffc23aaca6]
class ___Common___.Attribute--><rect fill="#FEFECE" filter="url(#f1svkuz1v70lay)" height="48" id="___Common___.Attribute" style="stroke:#A80036;stroke-width:1.5;" width="83" x="360.5" y="41"/><ellipse cx="375.5" cy="57" fill="#ADD1B2" rx="11" ry="11" style="stroke:#A80036;stroke-width:1.0;"/><path d="M377.8438,52.6719 C376.9063,52.2344 376.3125,52.0938 375.4375,52.0938 C372.8125,52.0938 370.8125,54.1719 370.8125,56.8906 L370.8125,58.0156 C370.8125,60.5938 372.9219,62.4844 375.8125,62.4844 C377.0313,62.4844 378.1875,62.1875 378.9375,61.6406 C379.5156,61.2344 379.8438,60.7813 379.8438,60.3906 C379.8438,59.9375 379.4531,59.5469 378.9844,59.5469 C378.7656,59.5469 378.5625,59.625 378.375,59.8125 C377.9219,60.2969 377.9219,60.2969 377.7344,60.3906 C377.3125,60.6563 376.625,60.7813 375.8594,60.7813 C373.8125,60.7813 372.5156,59.6875 372.5156,57.9844 L372.5156,56.8906 C372.5156,55.1094 373.7656,53.7969 375.5,53.7969 C376.0781,53.7969 376.6875,53.9531 377.1563,54.2031 C377.6406,54.4844 377.8125,54.7031 377.9063,55.1094 C377.9688,55.5156 378,55.6406 378.1406,55.7656 C378.2813,55.9063 378.5156,56.0156 378.7344,56.0156 C379,56.0156 379.2656,55.875 379.4375,55.6563 C379.5469,55.5 379.5781,55.3125 379.5781,54.8906 L379.5781,53.4688 C379.5781,53.0313 379.5625,52.9063 379.4688,52.75 C379.3125,52.4844 379.0313,52.3438 378.7344,52.3438 C378.4375,52.3438 378.2344,52.4375 378.0156,52.75 L377.8438,52.6719 Z " fill="#000000"/><text fill="#000000" font-family="sans-serif" font-size="12" lengthAdjust="spacing" textLength="51" x="389.5" y="61.1543">Attribute</text><line style="stroke:#A80036;stroke-width:1.5;" x1="361.5" x2="442.5" y1="73" y2="73"/><line style="stroke:#A80036;stroke-width:1.5;" x1="361.5" x2="442.5" y1="81" y2="81"/><!--MD5=[803753ed394f4fc6f4ea557b90fe581a]
class ___Common___.INotifyPropertyChanged--><rect fill="#FEFECE" filter="url(#f1svkuz1v70lay)" height="48" id="___Common___.INotifyPropertyChanged" style="stroke:#A80036;stroke-width:1.5;" width="176" x="666" y="41"/><ellipse cx="681" cy="57" fill="#B4A7E5" rx="11" ry="11" style="stroke:#A80036;stroke-width:1.0;"/><path d="M681.9531,53.7813 L683.6719,53.7813 C684.0625,53.7813 684.25,53.75 684.375,53.6719 C684.6406,53.5156 684.7813,53.2344 684.7813,52.9375 C684.7813,52.6719 684.6719,52.4063 684.4375,52.2344 C684.2656,52.125 684.125,52.0938 683.6719,52.0938 L678.5313,52.0938 C678.0938,52.0938 677.9688,52.1094 677.8125,52.2031 C677.5625,52.3594 677.4063,52.6563 677.4063,52.9375 C677.4063,53.2188 677.5469,53.4688 677.7656,53.6406 C677.9219,53.75 678.1094,53.7813 678.5313,53.7813 L680.25,53.7813 L680.25,60.2969 L678.5313,60.2969 C678.0938,60.2969 677.9688,60.3125 677.8125,60.4219 C677.5625,60.5781 677.4063,60.8594 677.4063,61.1563 C677.4063,61.4063 677.5469,61.6719 677.7656,61.8281 C677.9219,61.9531 678.125,62 678.5313,62 L683.6719,62 C684.4219,62 684.7813,61.7188 684.7813,61.1563 C684.7813,60.875 684.6719,60.625 684.4375,60.4531 C684.2656,60.3281 684.125,60.2969 683.6719,60.2969 L681.9531,60.2969 L681.9531,53.7813 Z " fill="#000000"/><text fill="#000000" font-family="sans-serif" font-size="12" font-style="italic" lengthAdjust="spacing" textLength="144" x="695" y="61.1543">INotifyPropertyChanged</text><line style="stroke:#A80036;stroke-width:1.5;" x1="667" x2="841" y1="73" y2="73"/><line style="stroke:#A80036;stroke-width:1.5;" x1="667" x2="841" y1="81" y2="81"/><!--MD5=[832a566ef72fd97dad4cdd2ae4b79a9e]
class ___Common___.INotifyDataErrorInfo--><rect fill="#FEFECE" filter="url(#f1svkuz1v70lay)" height="48" id="___Common___.INotifyDataErrorInfo" style="stroke:#A80036;stroke-width:1.5;" width="152" x="479" y="41"/><ellipse cx="494" cy="57" fill="#B4A7E5" rx="11" ry="11" style="stroke:#A80036;stroke-width:1.0;"/><path d="M494.9531,53.7813 L496.6719,53.7813 C497.0625,53.7813 497.25,53.75 497.375,53.6719 C497.6406,53.5156 497.7813,53.2344 497.7813,52.9375 C497.7813,52.6719 497.6719,52.4063 497.4375,52.2344 C497.2656,52.125 497.125,52.0938 496.6719,52.0938 L491.5313,52.0938 C491.0938,52.0938 490.9688,52.1094 490.8125,52.2031 C490.5625,52.3594 490.4063,52.6563 490.4063,52.9375 C490.4063,53.2188 490.5469,53.4688 490.7656,53.6406 C490.9219,53.75 491.1094,53.7813 491.5313,53.7813 L493.25,53.7813 L493.25,60.2969 L491.5313,60.2969 C491.0938,60.2969 490.9688,60.3125 490.8125,60.4219 C490.5625,60.5781 490.4063,60.8594 490.4063,61.1563 C490.4063,61.4063 490.5469,61.6719 490.7656,61.8281 C490.9219,61.9531 491.125,62 491.5313,62 L496.6719,62 C497.4219,62 497.7813,61.7188 497.7813,61.1563 C497.7813,60.875 497.6719,60.625 497.4375,60.4531 C497.2656,60.3281 497.125,60.2969 496.6719,60.2969 L494.9531,60.2969 L494.9531,53.7813 Z " fill="#000000"/><text fill="#000000" font-family="sans-serif" font-size="12" font-style="italic" lengthAdjust="spacing" textLength="120" x="508" y="61.1543">INotifyDataErrorInfo</text><line style="stroke:#A80036;stroke-width:1.5;" x1="480" x2="630" y1="73" y2="73"/><line style="stroke:#A80036;stroke-width:1.5;" x1="480" x2="630" y1="81" y2="81"/><!--MD5=[a4966a2fa967aab3b01b6adcf1b89146]
class MVVMLibrary.Models.BaseChildModel--><rect codeLine="21" fill="#FEFECE" filter="url(#f1svkuz1v70lay)" height="82.4141" id="MVVMLibrary.Models.BaseChildModel" style="stroke:#A80036;stroke-width:1.5;" width="139" x="585.5" y="715.5"/><ellipse cx="600.5" cy="731.5" fill="#ADD1B2" rx="11" ry="11" style="stroke:#A80036;stroke-width:1.0;"/><path d="M602.8438,727.1719 C601.9063,726.7344 601.3125,726.5938 600.4375,726.5938 C597.8125,726.5938 595.8125,728.6719 595.8125,731.3906 L595.8125,732.5156 C595.8125,735.0938 597.9219,736.9844 600.8125,736.9844 C602.0313,736.9844 603.1875,736.6875 603.9375,736.1406 C604.5156,735.7344 604.8438,735.2813 604.8438,734.8906 C604.8438,734.4375 604.4531,734.0469 603.9844,734.0469 C603.7656,734.0469 603.5625,734.125 603.375,734.3125 C602.9219,734.7969 602.9219,734.7969 602.7344,734.8906 C602.3125,735.1563 601.625,735.2813 600.8594,735.2813 C598.8125,735.2813 597.5156,734.1875 597.5156,732.4844 L597.5156,731.3906 C597.5156,729.6094 598.7656,728.2969 600.5,728.2969 C601.0781,728.2969 601.6875,728.4531 602.1563,728.7031 C602.6406,728.9844 602.8125,729.2031 602.9063,729.6094 C602.9688,730.0156 603,730.1406 603.1406,730.2656 C603.2813,730.4063 603.5156,730.5156 603.7344,730.5156 C604,730.5156 604.2656,730.375 604.4375,730.1563 C604.5469,730 604.5781,729.8125 604.5781,729.3906 L604.5781,727.9688 C604.5781,727.5313 604.5625,727.4063 604.4688,727.25 C604.3125,726.9844 604.0313,726.8438 603.7344,726.8438 C603.4375,726.8438 603.2344,726.9375 603.0156,727.25 L602.8438,727.1719 Z " fill="#000000"/><ellipse cx="619.5" cy="731" fill="#84BE84" rx="3" ry="3" style="stroke:#038048;stroke-width:1.0;"/><text fill="#000000" font-family="sans-serif" font-size="12" lengthAdjust="spacing" textLength="96" x="625.5" y="735.6543">BaseChildModel</text><line style="stroke:#A80036;stroke-width:1.5;" x1="586.5" x2="723.5" y1="747.5" y2="747.5"/><ellipse cx="596.5" cy="775.3047" fill="none" rx="3" ry="3" style="stroke:#038048;stroke-width:1.0;"/><text fill="#000000" font-family="sans-serif" font-size="11" lengthAdjust="spacing" textLength="71" x="605.5" y="778.5151">ParentId : int</text><text fill="#000000" font-family="sans-serif" font-size="11" lengthAdjust="spacing" textLength="0" x="609.5" y="791.3198"/><line style="stroke:#A80036;stroke-width:1.0;stroke-dasharray:1.0,2.0;" x1="586.5" x2="626.5" y1="761.9023" y2="761.9023"/><text fill="#000000" font-family="sans-serif" font-size="11" lengthAdjust="spacing" textLength="57" x="626.5" y="765.2104">Properties</text><line style="stroke:#A80036;stroke-width:1.0;stroke-dasharray:1.0,2.0;" x1="683.5" x2="723.5" y1="761.9023" y2="761.9023"/><!--MD5=[ebab20e5e3d234c5d6db880032467728]
class MVVMLibrary.Models.BaseModel--><rect codeLine="29" fill="#FEFECE" filter="url(#f1svkuz1v70lay)" height="372.1172" id="MVVMLibrary.Models.BaseModel" style="stroke:#A80036;stroke-width:1.5;" width="597" x="356.5" y="164"/><ellipse cx="611.75" cy="180" fill="#ADD1B2" rx="11" ry="11" style="stroke:#A80036;stroke-width:1.0;"/><path d="M614.0938,175.6719 C613.1563,175.2344 612.5625,175.0938 611.6875,175.0938 C609.0625,175.0938 607.0625,177.1719 607.0625,179.8906 L607.0625,181.0156 C607.0625,183.5938 609.1719,185.4844 612.0625,185.4844 C613.2813,185.4844 614.4375,185.1875 615.1875,184.6406 C615.7656,184.2344 616.0938,183.7813 616.0938,183.3906 C616.0938,182.9375 615.7031,182.5469 615.2344,182.5469 C615.0156,182.5469 614.8125,182.625 614.625,182.8125 C614.1719,183.2969 614.1719,183.2969 613.9844,183.3906 C613.5625,183.6563 612.875,183.7813 612.1094,183.7813 C610.0625,183.7813 608.7656,182.6875 608.7656,180.9844 L608.7656,179.8906 C608.7656,178.1094 610.0156,176.7969 611.75,176.7969 C612.3281,176.7969 612.9375,176.9531 613.4063,177.2031 C613.8906,177.4844 614.0625,177.7031 614.1563,178.1094 C614.2188,178.5156 614.25,178.6406 614.3906,178.7656 C614.5313,178.9063 614.7656,179.0156 614.9844,179.0156 C615.25,179.0156 615.5156,178.875 615.6875,178.6563 C615.7969,178.5 615.8281,178.3125 615.8281,177.8906 L615.8281,176.4688 C615.8281,176.0313 615.8125,175.9063 615.7188,175.75 C615.5625,175.4844 615.2813,175.3438 614.9844,175.3438 C614.6875,175.3438 614.4844,175.4375 614.2656,175.75 L614.0938,175.6719 Z " fill="#000000"/><ellipse cx="637.25" cy="179.5" fill="#84BE84" rx="3" ry="3" style="stroke:#038048;stroke-width:1.0;"/><text fill="#000000" font-family="sans-serif" font-size="12" lengthAdjust="spacing" textLength="67" x="643.25" y="184.1543">BaseModel</text><line style="stroke:#A80036;stroke-width:1.5;" x1="357.5" x2="952.5" y1="196" y2="196"/><ellipse cx="367.5" cy="223.8047" fill="#84BE84" rx="3" ry="3" style="stroke:#038048;stroke-width:1.0;"/><text fill="#000000" font-family="sans-serif" font-size="11" lengthAdjust="spacing" textLength="254" x="376.5" y="227.0151">IEnumerable GetErrors(string propertyName)</text><text fill="#000000" font-family="sans-serif" font-size="11" lengthAdjust="spacing" textLength="0" x="380.5" y="239.8198"/><ellipse cx="367.5" cy="249.4141" fill="#84BE84" rx="3" ry="3" style="stroke:#038048;stroke-width:1.0;"/><text fill="#000000" font-family="sans-serif" font-size="11" lengthAdjust="spacing" textLength="571" x="376.5" y="252.6245">void ValidateStringNotNull([CallerMemberName] string name = null, bool allowWhiteSpaces = false)</text><text fill="#000000" font-family="sans-serif" font-size="11" lengthAdjust="spacing" textLength="0" x="380.5" y="265.4292"/><ellipse cx="367.5" cy="275.0234" fill="#84BE84" rx="3" ry="3" style="stroke:#038048;stroke-width:1.0;"/><text fill="#000000" font-family="sans-serif" font-size="11" lengthAdjust="spacing" textLength="252" x="376.5" y="278.2339">void OnErrorsChanged(string propertyName)</text><text fill="#000000" font-family="sans-serif" font-size="11" lengthAdjust="spacing" textLength="0" x="380.5" y="291.0386"/><ellipse cx="367.5" cy="300.6328" fill="#84BE84" rx="3" ry="3" style="stroke:#038048;stroke-width:1.0;"/><text fill="#000000" font-family="sans-serif" font-size="11" lengthAdjust="spacing" textLength="270" x="376.5" y="303.8433">void AddError(string propertyName, string error)</text><text fill="#000000" font-family="sans-serif" font-size="11" lengthAdjust="spacing" textLength="0" x="380.5" y="316.6479"/><ellipse cx="367.5" cy="326.2422" fill="#84BE84" rx="3" ry="3" style="stroke:#038048;stroke-width:1.0;"/><text fill="#000000" font-family="sans-serif" font-size="11" lengthAdjust="spacing" textLength="215" x="376.5" y="329.4526">void ClearErrors(string propertyName)</text><text fill="#000000" font-family="sans-serif" font-size="11" lengthAdjust="spacing" textLength="0" x="380.5" y="342.2573"/><polygon fill="#FFFF44" points="367.5,346.8516,371.5,350.8516,367.5,354.8516,363.5,350.8516" style="stroke:#B38D22;stroke-width:1.0;"/><text fill="#000000" font-family="sans-serif" font-size="11" lengthAdjust="spacing" textLength="381" x="376.5" y="355.062">void OnPropertyChanged([CallerMemberName] string name = null)</text><text fill="#000000" font-family="sans-serif" font-size="11" lengthAdjust="spacing" textLength="0" x="380.5" y="367.8667"/><line style="stroke:#A80036;stroke-width:1.0;stroke-dasharray:1.0,2.0;" x1="357.5" x2="631" y1="210.4023" y2="210.4023"/><text fill="#000000" font-family="sans-serif" font-size="11" lengthAdjust="spacing" textLength="48" x="631" y="213.7104">Methods</text><line style="stroke:#A80036;stroke-width:1.0;stroke-dasharray:1.0,2.0;" x1="679" x2="952.5" y1="210.4023" y2="210.4023"/><ellipse cx="367.5" cy="394.2656" fill="none" rx="3" ry="3" style="stroke:#038048;stroke-width:1.0;"/><text fill="#000000" font-family="sans-serif" font-size="11" lengthAdjust="spacing" textLength="35" x="376.5" y="397.4761">Id : int</text><text fill="#000000" font-family="sans-serif" font-size="11" lengthAdjust="spacing" textLength="0" x="380.5" y="410.2808"/><line style="stroke:#A80036;stroke-width:1.0;stroke-dasharray:1.0,2.0;" x1="357.5" x2="626.5" y1="380.8633" y2="380.8633"/><text fill="#000000" font-family="sans-serif" font-size="11" lengthAdjust="spacing" textLength="57" x="626.5" y="384.1714">Properties</text><line style="stroke:#A80036;stroke-width:1.0;stroke-dasharray:1.0,2.0;" x1="683.5" x2="952.5" y1="380.8633" y2="380.8633"/><rect fill="none" height="6" style="stroke:#C82930;stroke-width:1.0;" width="6" x="364.5" y="433.6797"/><text fill="#000000" font-family="sans-serif" font-size="11" lengthAdjust="spacing" textLength="327" x="376.5" y="439.8901">_errorsByPropertyName : Dictionary&lt;string, List&lt;string&gt;&gt;</text><text fill="#000000" font-family="sans-serif" font-size="11" lengthAdjust="spacing" textLength="0" x="380.5" y="452.6948"/><ellipse cx="367.5" cy="462.2891" fill="none" rx="3" ry="3" style="stroke:#038048;stroke-width:1.0;"/><text fill="#000000" font-family="sans-serif" font-size="11" lengthAdjust="spacing" textLength="88" x="376.5" y="465.4995">HasErrors : bool</text><text fill="#000000" font-family="sans-serif" font-size="11" lengthAdjust="spacing" textLength="0" x="380.5" y="478.3042"/><ellipse cx="367.5" cy="487.8984" fill="none" rx="3" ry="3" style="stroke:#038048;stroke-width:1.0;"/><text fill="#000000" font-family="sans-serif" font-size="11" lengthAdjust="spacing" textLength="357" x="376.5" y="491.1089">ErrorsChanged : EventHandler&lt;DataErrorsChangedEventArgs&gt;</text><text fill="#000000" font-family="sans-serif" font-size="11" lengthAdjust="spacing" textLength="0" x="380.5" y="503.9136"/><ellipse cx="367.5" cy="513.5078" fill="none" rx="3" ry="3" style="stroke:#038048;stroke-width:1.0;"/><text fill="#000000" font-family="sans-serif" font-size="11" lengthAdjust="spacing" textLength="284" x="376.5" y="516.7183">PropertyChanged : PropertyChangedEventHandler</text><text fill="#000000" font-family="sans-serif" font-size="11" lengthAdjust="spacing" textLength="0" x="380.5" y="529.5229"/><line style="stroke:#A80036;stroke-width:1.0;stroke-dasharray:1.0,2.0;" x1="357.5" x2="638.5" y1="423.2773" y2="423.2773"/><text fill="#000000" font-family="sans-serif" font-size="11" lengthAdjust="spacing" textLength="33" x="638.5" y="426.5854">Fields</text><line style="stroke:#A80036;stroke-width:1.0;stroke-dasharray:1.0,2.0;" x1="671.5" x2="952.5" y1="423.2773" y2="423.2773"/><!--MD5=[f6ec46242fbc0adbe885cfd542f10fec]
class MVVMLibrary.Models.BaseMultiChildModel--><rect codeLine="58" fill="#FEFECE" filter="url(#f1svkuz1v70lay)" height="82.4141" id="MVVMLibrary.Models.BaseMultiChildModel" style="stroke:#A80036;stroke-width:1.5;" width="166" x="572" y="977"/><ellipse cx="587" cy="993" fill="#ADD1B2" rx="11" ry="11" style="stroke:#A80036;stroke-width:1.0;"/><path d="M589.3438,988.6719 C588.4063,988.2344 587.8125,988.0938 586.9375,988.0938 C584.3125,988.0938 582.3125,990.1719 582.3125,992.8906 L582.3125,994.0156 C582.3125,996.5938 584.4219,998.4844 587.3125,998.4844 C588.5313,998.4844 589.6875,998.1875 590.4375,997.6406 C591.0156,997.2344 591.3438,996.7813 591.3438,996.3906 C591.3438,995.9375 590.9531,995.5469 590.4844,995.5469 C590.2656,995.5469 590.0625,995.625 589.875,995.8125 C589.4219,996.2969 589.4219,996.2969 589.2344,996.3906 C588.8125,996.6563 588.125,996.7813 587.3594,996.7813 C585.3125,996.7813 584.0156,995.6875 584.0156,993.9844 L584.0156,992.8906 C584.0156,991.1094 585.2656,989.7969 587,989.7969 C587.5781,989.7969 588.1875,989.9531 588.6563,990.2031 C589.1406,990.4844 589.3125,990.7031 589.4063,991.1094 C589.4688,991.5156 589.5,991.6406 589.6406,991.7656 C589.7813,991.9063 590.0156,992.0156 590.2344,992.0156 C590.5,992.0156 590.7656,991.875 590.9375,991.6563 C591.0469,991.5 591.0781,991.3125 591.0781,990.8906 L591.0781,989.4688 C591.0781,989.0313 591.0625,988.9063 590.9688,988.75 C590.8125,988.4844 590.5313,988.3438 590.2344,988.3438 C589.9375,988.3438 589.7344,988.4375 589.5156,988.75 L589.3438,988.6719 Z " fill="#000000"/><ellipse cx="606" cy="992.5" fill="#84BE84" rx="3" ry="3" style="stroke:#038048;stroke-width:1.0;"/><text fill="#000000" font-family="sans-serif" font-size="12" lengthAdjust="spacing" textLength="123" x="612" y="997.1543">BaseMultiChildModel</text><line style="stroke:#A80036;stroke-width:1.5;" x1="573" x2="737" y1="1009" y2="1009"/><ellipse cx="583" cy="1036.8047" fill="none" rx="3" ry="3" style="stroke:#038048;stroke-width:1.0;"/><text fill="#000000" font-family="sans-serif" font-size="11" lengthAdjust="spacing" textLength="107" x="592" y="1040.0151">ParentType : string</text><text fill="#000000" font-family="sans-serif" font-size="11" lengthAdjust="spacing" textLength="0" x="596" y="1052.8198"/><line style="stroke:#A80036;stroke-width:1.0;stroke-dasharray:1.0,2.0;" x1="573" x2="626.5" y1="1023.4023" y2="1023.4023"/><text fill="#000000" font-family="sans-serif" font-size="11" lengthAdjust="spacing" textLength="57" x="626.5" y="1026.7104">Properties</text><line style="stroke:#A80036;stroke-width:1.0;stroke-dasharray:1.0,2.0;" x1="683.5" x2="737" y1="1023.4023" y2="1023.4023"/><!--MD5=[37c52e4320b41622486194fc46e6b070]
class MVVMLibrary.ViewModels.BaseExpandableViewModel--><rect codeLine="67" fill="#FEFECE" filter="url(#f1svkuz1v70lay)" height="192.8516" id="MVVMLibrary.ViewModels.BaseExpandableViewModel" style="stroke:#A80036;stroke-width:1.5;" width="266" x="1010" y="660"/><ellipse cx="1050.65" cy="676" fill="#ADD1B2" rx="11" ry="11" style="stroke:#A80036;stroke-width:1.0;"/><path d="M1052.9938,671.6719 C1052.0563,671.2344 1051.4625,671.0938 1050.5875,671.0938 C1047.9625,671.0938 1045.9625,673.1719 1045.9625,675.8906 L1045.9625,677.0156 C1045.9625,679.5938 1048.0719,681.4844 1050.9625,681.4844 C1052.1813,681.4844 1053.3375,681.1875 1054.0875,680.6406 C1054.6656,680.2344 1054.9938,679.7813 1054.9938,679.3906 C1054.9938,678.9375 1054.6031,678.5469 1054.1344,678.5469 C1053.9156,678.5469 1053.7125,678.625 1053.525,678.8125 C1053.0719,679.2969 1053.0719,679.2969 1052.8844,679.3906 C1052.4625,679.6563 1051.775,679.7813 1051.0094,679.7813 C1048.9625,679.7813 1047.6656,678.6875 1047.6656,676.9844 L1047.6656,675.8906 C1047.6656,674.1094 1048.9156,672.7969 1050.65,672.7969 C1051.2281,672.7969 1051.8375,672.9531 1052.3063,673.2031 C1052.7906,673.4844 1052.9625,673.7031 1053.0563,674.1094 C1053.1188,674.5156 1053.15,674.6406 1053.2906,674.7656 C1053.4313,674.9063 1053.6656,675.0156 1053.8844,675.0156 C1054.15,675.0156 1054.4156,674.875 1054.5875,674.6563 C1054.6969,674.5 1054.7281,674.3125 1054.7281,673.8906 L1054.7281,672.4688 C1054.7281,672.0313 1054.7125,671.9063 1054.6188,671.75 C1054.4625,671.4844 1054.1813,671.3438 1053.8844,671.3438 C1053.5875,671.3438 1053.3844,671.4375 1053.1656,671.75 L1052.9938,671.6719 Z " fill="#000000"/><ellipse cx="1075.35" cy="675.5" fill="#84BE84" rx="3" ry="3" style="stroke:#038048;stroke-width:1.0;"/><text fill="#000000" font-family="sans-serif" font-size="12" lengthAdjust="spacing" textLength="166" x="1081.35" y="680.1543">BaseExpandableViewModel</text><line style="stroke:#A80036;stroke-width:1.5;" x1="1011" x2="1275" y1="692" y2="692"/><polygon fill="#FFFF44" points="1021,714.8047,1025,718.8047,1021,722.8047,1017,718.8047" style="stroke:#B38D22;stroke-width:1.0;"/><text fill="#000000" font-family="sans-serif" font-size="11" lengthAdjust="spacing" textLength="122" x="1030" y="723.0151">void AddCommands()</text><text fill="#000000" font-family="sans-serif" font-size="11" lengthAdjust="spacing" textLength="0" x="1034" y="735.8198"/><line style="stroke:#A80036;stroke-width:1.0;stroke-dasharray:1.0,2.0;" x1="1011" x2="1119" y1="706.4023" y2="706.4023"/><text fill="#000000" font-family="sans-serif" font-size="11" lengthAdjust="spacing" textLength="48" x="1119" y="709.7104">Methods</text><line style="stroke:#A80036;stroke-width:1.0;stroke-dasharray:1.0,2.0;" x1="1167" x2="1275" y1="706.4023" y2="706.4023"/><ellipse cx="1021" cy="762.2188" fill="none" rx="3" ry="3" style="stroke:#038048;stroke-width:1.0;"/><text fill="#000000" font-family="sans-serif" font-size="11" lengthAdjust="spacing" textLength="240" x="1030" y="765.4292">ToggleExpandCommand : RelayCommand</text><text fill="#000000" font-family="sans-serif" font-size="11" lengthAdjust="spacing" textLength="0" x="1034" y="778.2339"/><ellipse cx="1021" cy="787.8281" fill="none" rx="3" ry="3" style="stroke:#038048;stroke-width:1.0;"/><text fill="#000000" font-family="sans-serif" font-size="11" lengthAdjust="spacing" textLength="101" x="1030" y="791.0386">IsExpanded : bool</text><text fill="#000000" font-family="sans-serif" font-size="11" lengthAdjust="spacing" textLength="0" x="1034" y="803.8433"/><line style="stroke:#A80036;stroke-width:1.0;stroke-dasharray:1.0,2.0;" x1="1011" x2="1114.5" y1="748.8164" y2="748.8164"/><text fill="#000000" font-family="sans-serif" font-size="11" lengthAdjust="spacing" textLength="57" x="1114.5" y="752.1245">Properties</text><line style="stroke:#A80036;stroke-width:1.0;stroke-dasharray:1.0,2.0;" x1="1171.5" x2="1275" y1="748.8164" y2="748.8164"/><rect fill="none" height="6" style="stroke:#C82930;stroke-width:1.0;" width="6" x="1018" y="827.2422"/><text fill="#000000" font-family="sans-serif" font-size="11" lengthAdjust="spacing" textLength="101" x="1030" y="833.4526">isExpanded : bool</text><text fill="#000000" font-family="sans-serif" font-size="11" lengthAdjust="spacing" textLength="0" x="1034" y="846.2573"/><line style="stroke:#A80036;stroke-width:1.0;stroke-dasharray:1.0,2.0;" x1="1011" x2="1126.5" y1="816.8398" y2="816.8398"/><text fill="#000000" font-family="sans-serif" font-size="11" lengthAdjust="spacing" textLength="33" x="1126.5" y="820.1479">Fields</text><line style="stroke:#A80036;stroke-width:1.0;stroke-dasharray:1.0,2.0;" x1="1159.5" x2="1275" y1="816.8398" y2="816.8398"/><!--MD5=[9ea52827f067b580a24c8953ae64d167]
class MVVMLibrary.ViewModels.BaseViewModel--><rect codeLine="107" fill="#FEFECE" filter="url(#f1svkuz1v70lay)" height="278.4844" id="MVVMLibrary.ViewModels.BaseViewModel" style="stroke:#A80036;stroke-width:1.5;" width="603" x="1010.5" y="211"/><ellipse cx="1254.25" cy="227" fill="#ADD1B2" rx="11" ry="11" style="stroke:#A80036;stroke-width:1.0;"/><path d="M1256.5938,222.6719 C1255.6563,222.2344 1255.0625,222.0938 1254.1875,222.0938 C1251.5625,222.0938 1249.5625,224.1719 1249.5625,226.8906 L1249.5625,228.0156 C1249.5625,230.5938 1251.6719,232.4844 1254.5625,232.4844 C1255.7813,232.4844 1256.9375,232.1875 1257.6875,231.6406 C1258.2656,231.2344 1258.5938,230.7813 1258.5938,230.3906 C1258.5938,229.9375 1258.2031,229.5469 1257.7344,229.5469 C1257.5156,229.5469 1257.3125,229.625 1257.125,229.8125 C1256.6719,230.2969 1256.6719,230.2969 1256.4844,230.3906 C1256.0625,230.6563 1255.375,230.7813 1254.6094,230.7813 C1252.5625,230.7813 1251.2656,229.6875 1251.2656,227.9844 L1251.2656,226.8906 C1251.2656,225.1094 1252.5156,223.7969 1254.25,223.7969 C1254.8281,223.7969 1255.4375,223.9531 1255.9063,224.2031 C1256.3906,224.4844 1256.5625,224.7031 1256.6563,225.1094 C1256.7188,225.5156 1256.75,225.6406 1256.8906,225.7656 C1257.0313,225.9063 1257.2656,226.0156 1257.4844,226.0156 C1257.75,226.0156 1258.0156,225.875 1258.1875,225.6563 C1258.2969,225.5 1258.3281,225.3125 1258.3281,224.8906 L1258.3281,223.4688 C1258.3281,223.0313 1258.3125,222.9063 1258.2188,222.75 C1258.0625,222.4844 1257.7813,222.3438 1257.4844,222.3438 C1257.1875,222.3438 1256.9844,222.4375 1256.7656,222.75 L1256.5938,222.6719 Z " fill="#000000"/><ellipse cx="1279.75" cy="226.5" fill="#84BE84" rx="3" ry="3" style="stroke:#038048;stroke-width:1.0;"/><text fill="#000000" font-family="sans-serif" font-size="12" lengthAdjust="spacing" textLength="96" x="1285.75" y="231.1543">BaseViewModel</text><line style="stroke:#A80036;stroke-width:1.5;" x1="1011.5" x2="1612.5" y1="243" y2="243"/><polygon fill="#FFFF44" points="1021.5,265.8047,1025.5,269.8047,1021.5,273.8047,1017.5,269.8047" style="stroke:#B38D22;stroke-width:1.0;"/><text fill="#000000" font-family="sans-serif" font-size="11" lengthAdjust="spacing" textLength="398" x="1030.5" y="274.0151">void NotifyPropertyChanged([CallerMemberName] string name = null)</text><text fill="#000000" font-family="sans-serif" font-size="11" lengthAdjust="spacing" textLength="0" x="1034.5" y="286.8198"/><ellipse cx="1021.5" cy="296.4141" fill="#84BE84" rx="3" ry="3" style="stroke:#038048;stroke-width:1.0;"/><text fill="#000000" font-family="sans-serif" font-size="11" lengthAdjust="spacing" textLength="136" x="1030.5" y="299.6245">public BaseViewModel()</text><text fill="#000000" font-family="sans-serif" font-size="11" lengthAdjust="spacing" textLength="0" x="1034.5" y="312.4292"/><polygon fill="#FFFF44" points="1021.5,317.0234,1025.5,321.0234,1021.5,325.0234,1017.5,321.0234" style="stroke:#B38D22;stroke-width:1.0;"/><text fill="#000000" font-family="sans-serif" font-size="11" lengthAdjust="spacing" textLength="122" x="1030.5" y="325.2339">void AddCommands()</text><text fill="#000000" font-family="sans-serif" font-size="11" lengthAdjust="spacing" textLength="0" x="1034.5" y="338.0386"/><polygon fill="#FFFF44" points="1021.5,342.6328,1025.5,346.6328,1021.5,350.6328,1017.5,346.6328" style="stroke:#B38D22;stroke-width:1.0;"/><text fill="#000000" font-family="sans-serif" font-size="11" lengthAdjust="spacing" textLength="118" x="1030.5" y="350.8433">void AddDelegates()</text><text fill="#000000" font-family="sans-serif" font-size="11" lengthAdjust="spacing" textLength="0" x="1034.5" y="363.6479"/><polygon fill="#FFFF44" points="1021.5,368.2422,1025.5,372.2422,1021.5,376.2422,1017.5,372.2422" style="stroke:#B38D22;stroke-width:1.0;"/><text fill="#000000" font-family="sans-serif" font-size="11" lengthAdjust="spacing" textLength="164" x="1030.5" y="376.4526">void SetPropertyAnnotation()</text><text fill="#000000" font-family="sans-serif" font-size="11" lengthAdjust="spacing" textLength="0" x="1034.5" y="389.2573"/><polygon fill="#FFFF44" points="1021.5,393.8516,1025.5,397.8516,1021.5,401.8516,1017.5,397.8516" style="stroke:#B38D22;stroke-width:1.0;"/><text fill="#000000" font-family="sans-serif" font-size="11" lengthAdjust="spacing" textLength="570" x="1030.5" y="402.062">void AddAnnotation(INotifyPropertyChanged changer, string[] notifieNames, string propertyName = )</text><text fill="#000000" font-family="sans-serif" font-size="11" lengthAdjust="spacing" textLength="0" x="1034.5" y="414.8667"/><polygon fill="#FFFF44" points="1021.5,419.4609,1025.5,423.4609,1021.5,427.4609,1017.5,423.4609" style="stroke:#B38D22;stroke-width:1.0;"/><text fill="#000000" font-family="sans-serif" font-size="11" lengthAdjust="spacing" textLength="577" x="1030.5" y="427.6714">void AddAnnotation(INotifyPropertyChanged changer, string[] notifieNames, string[] propertiesNames)</text><text fill="#000000" font-family="sans-serif" font-size="11" lengthAdjust="spacing" textLength="0" x="1034.5" y="440.4761"/><line style="stroke:#A80036;stroke-width:1.0;stroke-dasharray:1.0,2.0;" x1="1011.5" x2="1288" y1="257.4023" y2="257.4023"/><text fill="#000000" font-family="sans-serif" font-size="11" lengthAdjust="spacing" textLength="48" x="1288" y="260.7104">Methods</text><line style="stroke:#A80036;stroke-width:1.0;stroke-dasharray:1.0,2.0;" x1="1336" x2="1612.5" y1="257.4023" y2="257.4023"/><ellipse cx="1021.5" cy="466.875" fill="none" rx="3" ry="3" style="stroke:#038048;stroke-width:1.0;"/><text fill="#000000" font-family="sans-serif" font-size="11" lengthAdjust="spacing" textLength="284" x="1030.5" y="470.0854">PropertyChanged : PropertyChangedEventHandler</text><text fill="#000000" font-family="sans-serif" font-size="11" lengthAdjust="spacing" textLength="0" x="1034.5" y="482.8901"/><line style="stroke:#A80036;stroke-width:1.0;stroke-dasharray:1.0,2.0;" x1="1011.5" x2="1295.5" y1="453.4727" y2="453.4727"/><text fill="#000000" font-family="sans-serif" font-size="11" lengthAdjust="spacing" textLength="33" x="1295.5" y="456.7808">Fields</text><line style="stroke:#A80036;stroke-width:1.0;stroke-dasharray:1.0,2.0;" x1="1328.5" x2="1612.5" y1="453.4727" y2="453.4727"/><!--MD5=[9afdd4bb3070d4f9a1dfc3a78d8db15d]
class MVVMLibrary.ViewModels.BaseGridColumnViewModel--><rect codeLine="82" fill="#FEFECE" filter="url(#f1svkuz1v70lay)" height="320.8984" id="MVVMLibrary.ViewModels.BaseGridColumnViewModel" style="stroke:#A80036;stroke-width:1.5;" width="484" x="1311" y="596"/><ellipse cx="1460.75" cy="612" fill="#ADD1B2" rx="11" ry="11" style="stroke:#A80036;stroke-width:1.0;"/><path d="M1463.0938,607.6719 C1462.1563,607.2344 1461.5625,607.0938 1460.6875,607.0938 C1458.0625,607.0938 1456.0625,609.1719 1456.0625,611.8906 L1456.0625,613.0156 C1456.0625,615.5938 1458.1719,617.4844 1461.0625,617.4844 C1462.2813,617.4844 1463.4375,617.1875 1464.1875,616.6406 C1464.7656,616.2344 1465.0938,615.7813 1465.0938,615.3906 C1465.0938,614.9375 1464.7031,614.5469 1464.2344,614.5469 C1464.0156,614.5469 1463.8125,614.625 1463.625,614.8125 C1463.1719,615.2969 1463.1719,615.2969 1462.9844,615.3906 C1462.5625,615.6563 1461.875,615.7813 1461.1094,615.7813 C1459.0625,615.7813 1457.7656,614.6875 1457.7656,612.9844 L1457.7656,611.8906 C1457.7656,610.1094 1459.0156,608.7969 1460.75,608.7969 C1461.3281,608.7969 1461.9375,608.9531 1462.4063,609.2031 C1462.8906,609.4844 1463.0625,609.7031 1463.1563,610.1094 C1463.2188,610.5156 1463.25,610.6406 1463.3906,610.7656 C1463.5313,610.9063 1463.7656,611.0156 1463.9844,611.0156 C1464.25,611.0156 1464.5156,610.875 1464.6875,610.6563 C1464.7969,610.5 1464.8281,610.3125 1464.8281,609.8906 L1464.8281,608.4688 C1464.8281,608.0313 1464.8125,607.9063 1464.7188,607.75 C1464.5625,607.4844 1464.2813,607.3438 1463.9844,607.3438 C1463.6875,607.3438 1463.4844,607.4375 1463.2656,607.75 L1463.0938,607.6719 Z " fill="#000000"/><ellipse cx="1486.25" cy="611.5" fill="#84BE84" rx="3" ry="3" style="stroke:#038048;stroke-width:1.0;"/><text fill="#000000" font-family="sans-serif" font-size="12" lengthAdjust="spacing" textLength="165" x="1492.25" y="616.1543">BaseGridColumnViewModel</text><line style="stroke:#A80036;stroke-width:1.5;" x1="1312" x2="1794" y1="628" y2="628"/><ellipse cx="1322" cy="655.8047" fill="#84BE84" rx="3" ry="3" style="stroke:#038048;stroke-width:1.0;"/><text fill="#000000" font-family="sans-serif" font-size="11" lengthAdjust="spacing" textLength="458" x="1331" y="659.0151">public BaseGridColumnViewModel(int columnMinWidth, GridLength columnWidth)</text><text fill="#000000" font-family="sans-serif" font-size="11" lengthAdjust="spacing" textLength="0" x="1335" y="671.8198"/><polygon fill="#FFFF44" points="1322,676.4141,1326,680.4141,1322,684.4141,1318,680.4141" style="stroke:#B38D22;stroke-width:1.0;"/><text fill="#000000" font-family="sans-serif" font-size="11" lengthAdjust="spacing" textLength="122" x="1331" y="684.6245">void AddCommands()</text><text fill="#000000" font-family="sans-serif" font-size="11" lengthAdjust="spacing" textLength="0" x="1335" y="697.4292"/><line style="stroke:#A80036;stroke-width:1.0;stroke-dasharray:1.0,2.0;" x1="1312" x2="1529" y1="642.4023" y2="642.4023"/><text fill="#000000" font-family="sans-serif" font-size="11" lengthAdjust="spacing" textLength="48" x="1529" y="645.7104">Methods</text><line style="stroke:#A80036;stroke-width:1.0;stroke-dasharray:1.0,2.0;" x1="1577" x2="1794" y1="642.4023" y2="642.4023"/><ellipse cx="1322" cy="723.8281" fill="none" rx="3" ry="3" style="stroke:#038048;stroke-width:1.0;"/><text fill="#000000" font-family="sans-serif" font-size="11" lengthAdjust="spacing" textLength="229" x="1331" y="727.0386">ToggleShowCommand : RelayCommand</text><text fill="#000000" font-family="sans-serif" font-size="11" lengthAdjust="spacing" textLength="0" x="1335" y="739.8433"/><ellipse cx="1322" cy="749.4375" fill="none" rx="3" ry="3" style="stroke:#038048;stroke-width:1.0;"/><text fill="#000000" font-family="sans-serif" font-size="11" lengthAdjust="spacing" textLength="82" x="1331" y="752.6479">IsShown : bool</text><text fill="#000000" font-family="sans-serif" font-size="11" lengthAdjust="spacing" textLength="0" x="1335" y="765.4526"/><ellipse cx="1322" cy="775.0469" fill="none" rx="3" ry="3" style="stroke:#038048;stroke-width:1.0;"/><text fill="#000000" font-family="sans-serif" font-size="11" lengthAdjust="spacing" textLength="94" x="1331" y="778.2573">ColMinWidth : int</text><text fill="#000000" font-family="sans-serif" font-size="11" lengthAdjust="spacing" textLength="0" x="1335" y="791.062"/><ellipse cx="1322" cy="800.6563" fill="none" rx="3" ry="3" style="stroke:#038048;stroke-width:1.0;"/><text fill="#000000" font-family="sans-serif" font-size="11" lengthAdjust="spacing" textLength="123" x="1331" y="803.8667">ColWidth : GridLength</text><text fill="#000000" font-family="sans-serif" font-size="11" lengthAdjust="spacing" textLength="0" x="1335" y="816.6714"/><line style="stroke:#A80036;stroke-width:1.0;stroke-dasharray:1.0,2.0;" x1="1312" x2="1524.5" y1="710.4258" y2="710.4258"/><text fill="#000000" font-family="sans-serif" font-size="11" lengthAdjust="spacing" textLength="57" x="1524.5" y="713.7339">Properties</text><line style="stroke:#A80036;stroke-width:1.0;stroke-dasharray:1.0,2.0;" x1="1581.5" x2="1794" y1="710.4258" y2="710.4258"/><rect fill="none" height="6" style="stroke:#C82930;stroke-width:1.0;" width="6" x="1319" y="840.0703"/><text fill="#000000" font-family="sans-serif" font-size="11" lengthAdjust="spacing" textLength="82" x="1331" y="846.2808">isShown : bool</text><text fill="#000000" font-family="sans-serif" font-size="11" lengthAdjust="spacing" textLength="0" x="1335" y="859.0854"/><rect fill="none" height="6" style="stroke:#C82930;stroke-width:1.0;" width="6" x="1319" y="865.6797"/><text fill="#000000" font-family="sans-serif" font-size="11" lengthAdjust="spacing" textLength="121" x="1331" y="871.8901">colWidth : GridLength</text><text fill="#000000" font-family="sans-serif" font-size="11" lengthAdjust="spacing" textLength="0" x="1335" y="884.6948"/><rect fill="none" height="6" style="stroke:#C82930;stroke-width:1.0;" width="6" x="1319" y="891.2891"/><text fill="#000000" font-family="sans-serif" font-size="11" lengthAdjust="spacing" textLength="92" x="1331" y="897.4995">colMinWidth : int</text><text fill="#000000" font-family="sans-serif" font-size="11" lengthAdjust="spacing" textLength="0" x="1335" y="910.3042"/><line style="stroke:#A80036;stroke-width:1.0;stroke-dasharray:1.0,2.0;" x1="1312" x2="1536.5" y1="829.668" y2="829.668"/><text fill="#000000" font-family="sans-serif" font-size="11" lengthAdjust="spacing" textLength="33" x="1536.5" y="832.9761">Fields</text><line style="stroke:#A80036;stroke-width:1.0;stroke-dasharray:1.0,2.0;" x1="1569.5" x2="1794" y1="829.668" y2="829.668"/><!--MD5=[beffc83f7d4c32bc4f666f2e764eef47]
reverse link ___Common___.Attribute to MVVMLibrary.Attributes.NotifyAttribute--><path d="M358.83,102.342 C352.321,108.372 345.839,114.714 340,121 C301.793,162.135 263.488,211.263 232.584,253.364 " fill="none" id="___Common___.Attribute-backto-MVVMLibrary.Attributes.NotifyAttribute" style="stroke:#A80036;stroke-width:1.0;"/><polygon fill="none" points="354.192,97.099,373.777,89.01,363.512,107.547,354.192,97.099" style="stroke:#A80036;stroke-width:1.0;"/><!--MD5=[67f390a0137a5657fa530a6dbf57b1e5]
reverse link MVVMLibrary.Models.BaseModel to MVVMLibrary.Models.BaseChildModel--><path d="M655,556.21 C655,616.899 655,677.232 655,715.346 " fill="none" id="MVVMLibrary.Models.BaseModel-backto-MVVMLibrary.Models.BaseChildModel" style="stroke:#A80036;stroke-width:1.0;"/><polygon fill="none" points="648,556.085,655,536.085,662,556.085,648,556.085" style="stroke:#A80036;stroke-width:1.0;"/><!--MD5=[9d5f34f7a39d7d1807703c48d7f35db2]
reverse link ___Common___.INotifyPropertyChanged to MVVMLibrary.Models.BaseModel--><path d="M739.239,108.196 C733.696,124.04 726.982,143.234 719.79,163.793 " fill="none" id="___Common___.INotifyPropertyChanged-backto-MVVMLibrary.Models.BaseModel" style="stroke:#A80036;stroke-width:1.0;stroke-dasharray:7.0,7.0;"/><polygon fill="none" points="732.687,105.726,745.898,89.16,745.902,110.349,732.687,105.726" style="stroke:#A80036;stroke-width:1.0;"/><!--MD5=[e8662aeb8d33779277db4fa4319a66bc]
reverse link ___Common___.INotifyDataErrorInfo to MVVMLibrary.Models.BaseModel--><path d="M569.91,108.196 C575.509,124.04 582.291,143.234 589.556,163.793 " fill="none" id="___Common___.INotifyDataErrorInfo-backto-MVVMLibrary.Models.BaseModel" style="stroke:#A80036;stroke-width:1.0;stroke-dasharray:7.0,7.0;"/><polygon fill="none" points="563.247,110.349,563.183,89.16,576.447,105.684,563.247,110.349" style="stroke:#A80036;stroke-width:1.0;"/><!--MD5=[8dfff5fc53352fbd655d1f00c6a4d2f4]
reverse link MVVMLibrary.Models.BaseChildModel to MVVMLibrary.Models.BaseMultiChildModel--><path d="M655,818.084 C655,866.908 655,934.195 655,976.643 " fill="none" id="MVVMLibrary.Models.BaseChildModel-backto-MVVMLibrary.Models.BaseMultiChildModel" style="stroke:#A80036;stroke-width:1.0;"/><polygon fill="none" points="648,817.762,655,797.762,662,817.762,648,817.762" style="stroke:#A80036;stroke-width:1.0;"/><!--MD5=[bcbe02e6eb9b2c618c623d75f9490b72]
reverse link MVVMLibrary.ViewModels.BaseViewModel to MVVMLibrary.ViewModels.BaseExpandableViewModel--><path d="M1246.51,507.749 C1225.09,559.014 1201.95,614.393 1183,659.764 " fill="none" id="MVVMLibrary.ViewModels.BaseViewModel-backto-MVVMLibrary.ViewModels.BaseExpandableViewModel" style="stroke:#A80036;stroke-width:1.0;"/><polygon fill="none" points="1240.14,504.83,1254.31,489.075,1253.06,510.227,1240.14,504.83" style="stroke:#A80036;stroke-width:1.0;"/><!--MD5=[244cd3ffa47c58add0706c3c4a66bd3b]
reverse link MVVMLibrary.ViewModels.BaseViewModel to MVVMLibrary.ViewModels.BaseGridColumnViewModel--><path d="M1404.7,506.585 C1422.11,535.811 1440.34,566.412 1457.83,595.762 " fill="none" id="MVVMLibrary.ViewModels.BaseViewModel-backto-MVVMLibrary.ViewModels.BaseGridColumnViewModel" style="stroke:#A80036;stroke-width:1.0;"/><polygon fill="none" points="1398.49,509.839,1394.26,489.075,1410.51,502.673,1398.49,509.839" style="stroke:#A80036;stroke-width:1.0;"/><!--MD5=[3abeb3ec9be4e158039b13db1cdeff59]
reverse link ___Common___.INotifyPropertyChanged to MVVMLibrary.ViewModels.BaseViewModel--><path d="M861.935,85.91 C897.238,94.399 936.077,105.905 970,121 C1024.44,145.224 1079.75,177.902 1129.57,210.942 " fill="none" id="___Common___.INotifyPropertyChanged-backto-MVVMLibrary.ViewModels.BaseViewModel" style="stroke:#A80036;stroke-width:1.0;stroke-dasharray:7.0,7.0;"/><polygon fill="none" points="860.112,92.676,842.183,81.38,863.242,79.03,860.112,92.676" style="stroke:#A80036;stroke-width:1.0;"/><!--MD5=[5a43291c8253d14cad29576a43e52ce7]
@startuml

namespace MVVMLibrary.Attributes {
	class NotifyAttribute extends ___Common___.Attribute
	+class NotifyAttribute {
	.. Methods ..
		+public NotifyAttribute(string[] notifyNames)

		+public NotifyAttribute(string notifyName)

	.. Properties ..
		+NotifyNames : 

	.. Fields ..
		-notifyNames : 

	}

}
namespace MVVMLibrary.Models {
	class BaseChildModel extends MVVMLibrary.Models.BaseModel
	+class BaseChildModel {
	.. Properties ..
		+ParentId : int

	}

	class BaseModel implements ___Common___.INotifyPropertyChanged
	class BaseModel implements ___Common___.INotifyDataErrorInfo
	+class BaseModel {
	.. Methods ..
		+IEnumerable GetErrors(string propertyName)

		+void ValidateStringNotNull([CallerMemberName] string name = null, bool allowWhiteSpaces = false)

		+void OnErrorsChanged(string propertyName)

		+void AddError(string propertyName, string error)

		+void ClearErrors(string propertyName)

		#void OnPropertyChanged([CallerMemberName] string name = null)

	.. Properties ..
		+Id : int

	.. Fields ..
		-_errorsByPropertyName : Dictionary<string, List<string>>

		+HasErrors : bool

		+ErrorsChanged : EventHandler<DataErrorsChangedEventArgs>

		+PropertyChanged : PropertyChangedEventHandler

	}

	class BaseMultiChildModel extends MVVMLibrary.Models.BaseChildModel
	+class BaseMultiChildModel {
	.. Properties ..
		+ParentType : string

	}

}
namespace MVVMLibrary.ViewModels {
	class BaseExpandableViewModel extends MVVMLibrary.ViewModels.BaseViewModel
	+class BaseExpandableViewModel {
	.. Methods ..
		#void AddCommands()

	.. Properties ..
		+ToggleExpandCommand : RelayCommand

		+IsExpanded : bool

	.. Fields ..
		-isExpanded : bool

	}

	class BaseGridColumnViewModel extends MVVMLibrary.ViewModels.BaseViewModel
	+class BaseGridColumnViewModel {
	.. Methods ..
		+public BaseGridColumnViewModel(int columnMinWidth, GridLength columnWidth)

		#void AddCommands()

	.. Properties ..
		+ToggleShowCommand : RelayCommand

		+IsShown : bool

		+ColMinWidth : int

		+ColWidth : GridLength

	.. Fields ..
		-isShown : bool

		-colWidth : GridLength

		-colMinWidth : int

	}

	class BaseViewModel implements ___Common___.INotifyPropertyChanged
	+class BaseViewModel {
	.. Methods ..
		#void NotifyPropertyChanged([CallerMemberName] string name = null)

		+public BaseViewModel()

		#void AddCommands()

		#void AddDelegates()

		#void SetPropertyAnnotation()

		#void AddAnnotation(INotifyPropertyChanged changer, string[] notifieNames, string propertyName = )

		#void AddAnnotation(INotifyPropertyChanged changer, string[] notifieNames, string[] propertiesNames)

	.. Fields ..
		+PropertyChanged : PropertyChangedEventHandler

	}

}
@enduml

PlantUML version 1.2021.01beta2(Unknown compile time)
(GPL source distribution)
Java Runtime: Java(TM) SE Runtime Environment
JVM: Java HotSpot(TM) 64-Bit Server VM
Default Encoding: UTF-8
Language: en
Country: US
--></g></svg>
